<svg width="108" height="56" viewBox="0 0 108 56" fill="none" xmlns="http://www.w3.org/2000/svg">
<rect width="108" height="56" rx="4" fill="#003C73"/>
<g clip-path="url(#clip0_3122_22625)">
<path d="M47.1738 45.243H50.1645V43.7815H47.1738V42.6688H50.6321V41.2088H45.399V47.8505H50.7217V46.389H47.1723V45.243H47.1738ZM40.5395 44.8611C41.3193 44.6044 41.6644 43.931 41.6644 43.2591C41.6644 41.8731 40.9578 41.2088 38.8215 41.2088H35.8308V47.8505H37.6055V45.6673H38.4511C39.1487 45.6673 39.5266 45.7745 39.6745 46.4554L39.9867 47.8505H41.9422L41.4911 46.1233C41.2939 45.3759 40.9817 45.0271 40.538 44.8611H40.5395ZM38.8066 44.2375H37.607V42.6688H38.8798C39.5535 42.6688 39.8568 42.9255 39.8568 43.4735C39.8568 43.9718 39.5371 44.2375 38.8051 44.2375H38.8066ZM30.8547 44.8611C31.6345 44.6044 31.9796 43.931 31.9796 43.2591C31.9796 41.8731 31.273 41.2088 29.1368 41.2088H26.146V47.8505H27.9208V45.6673H28.7663C29.4639 45.6673 29.8419 45.7745 29.9898 46.4554L30.302 47.8505H32.2575L31.8063 46.1233C31.6091 45.3759 31.2969 45.0271 30.8532 44.8611H30.8547ZM29.1203 44.2375H27.9208V42.6688H29.1935C29.8673 42.6688 30.1705 42.9255 30.1705 43.4735C30.1705 43.9718 29.8508 44.2375 29.1188 44.2375H29.1203ZM18.6961 45.243H21.6868V43.7815H18.6961V42.6688H22.1544V41.2088H16.9214V47.8505H22.2441V46.389H18.6946V45.243H18.6961ZM8 29.0969C8 32.1256 10.4186 34.57 13.4407 34.57H34.2861V8H8V29.0969ZM53.5541 42.6612H55.6156V47.8505H57.3903V42.6612H59.4519V41.2088H53.5541V42.6612ZM80.6499 40.5928H82.0541L83.4673 39.2309H81.5701L80.6499 40.5928ZM87.7323 41.2088L85.2929 47.8505H87.1572L87.4918 46.8465H90.2062L90.5348 47.8505H92.4321L89.9926 41.2088H87.7323ZM87.94 45.4997L87.9878 45.3593C88.1685 44.7539 88.6361 43.2833 88.784 42.6356H88.9319C89.0798 43.2833 89.5474 44.7524 89.7207 45.3593L89.767 45.4997H87.94ZM8 47.8505H9.77472V45.6009H12.5429V44.156H9.77472V42.6703H12.9791V41.2103H8V47.852V47.8505ZM96.2459 42.9843C96.2459 42.628 96.5417 42.4695 97.084 42.4695C97.5023 42.4695 97.9459 42.619 98.0445 43.1414L99.761 42.9919C99.5235 41.855 98.7347 41.0578 97.1482 41.0578C95.5617 41.0578 94.5519 41.7221 94.5519 43.0508C94.5519 45.5918 98.306 44.7448 98.306 46.081C98.306 46.4298 98.0027 46.6125 97.4111 46.6125C96.8614 46.6125 96.3101 46.4056 96.1622 45.7987L94.4458 45.9557C94.6519 47.1847 95.7604 47.9985 97.3618 47.9985C98.9633 47.9985 99.9985 47.2768 99.9985 45.9814C99.9985 43.4826 96.2444 44.1711 96.2444 42.9843H96.2459ZM40.8577 34.567H48.8633V24.9751H59.3578V18.3469H48.8633V14.6433H60.3646V8H40.8562V34.567H40.8577ZM80.8546 47.8505H82.6293V41.2088H80.8546V47.8505ZM64.1157 45.243H67.1065V43.7815H64.1157V42.6688H67.5741V41.2088H62.341V47.8505H67.6637V46.389H64.1143V45.243H64.1157ZM76.1145 44.8611C76.8943 44.6044 77.2394 43.931 77.2394 43.2591C77.2394 41.8731 76.5328 41.2088 74.3966 41.2088H71.4058V47.8505H73.1805V45.6673H74.0261C74.7237 45.6673 75.1017 45.7745 75.2496 46.4554L75.5618 47.8505H77.5173L77.0661 46.1233C76.8689 45.3759 76.5567 45.0271 76.113 44.8611H76.1145ZM74.3816 44.2375H73.182V42.6688H74.4548C75.1286 42.6688 75.4318 42.9255 75.4318 43.4735C75.4318 43.9718 75.1121 44.2375 74.3801 44.2375H74.3816ZM63.2852 34.567H71.2908V8H63.2852V34.5655V34.567ZM100 8H91.0667L86.7688 15.2125L82.4709 8H73.5376L82.09 21.2292L73.5376 34.567H82.32L86.7688 27.1945L91.2175 34.567H100L91.4476 21.2292L100 8Z" fill="white"/>
<path d="M10.1904 10.2134H32.0248V32.3521H14.5585C15.2113 31.647 16.8307 30.039 17.7793 29.1497C18.6726 28.2997 19.3568 28.0339 20.5922 28.0339C21.3541 28.0339 21.9069 28.114 22.5896 28.114C24.0087 28.114 24.5077 28.0083 25.5594 27.4768C26.6111 26.9182 28.3977 24.8195 30.0275 21.9236C30.2382 21.5522 30.4742 21.0464 30.4742 20.5421C30.4742 20.1435 30.2382 19.9578 29.8961 19.9578C29.6063 19.9578 29.2911 20.0907 28.7652 20.4621L25.7685 22.4808C25.1904 22.8794 24.7437 22.9594 24.4016 22.9594C24.1387 22.9594 23.8758 22.9065 23.6397 22.7465C22.0891 21.7636 20.3278 19.0006 20.3278 17.2205C20.3278 16.4233 20.6176 16.0247 21.4841 15.5461L25.3487 13.4203C25.9269 13.1017 26.006 12.916 26.006 12.7031C26.006 12.1716 25.7162 12.0659 24.2448 12.0659C20.1964 12.0659 16.8053 13.7132 15.649 15.9719C15.0186 17.2477 15.1755 19.372 15.044 20.6735C14.8931 22.1275 13.2872 24.3877 10.1904 27.27V10.2134Z" fill="#FF6720"/>
</g>
<defs>
<clipPath id="clip0_3122_22625">
<rect width="92" height="40" fill="white" transform="translate(8 8)"/>
</clipPath>
</defs>
</svg>
