<svg width="92" height="40" viewBox="0 0 92 40" fill="none" xmlns="http://www.w3.org/2000/svg">
<g clip-path="url(#clip0_3076_7551)">
<path d="M39.1738 37.243H42.1645V35.7815H39.1738V34.6688H42.6321V33.2088H37.399V39.8505H42.7217V38.389H39.1723V37.243H39.1738ZM32.5395 36.8611C33.3193 36.6044 33.6644 35.931 33.6644 35.2591C33.6644 33.8731 32.9578 33.2088 30.8215 33.2088H27.8308V39.8505H29.6055V37.6673H30.4511C31.1487 37.6673 31.5266 37.7745 31.6745 38.4554L31.9867 39.8505H33.9422L33.4911 38.1233C33.2939 37.3759 32.9817 37.0271 32.538 36.8611H32.5395ZM30.8066 36.2375H29.607V34.6688H30.8798C31.5535 34.6688 31.8568 34.9255 31.8568 35.4735C31.8568 35.9718 31.5371 36.2375 30.8051 36.2375H30.8066ZM22.8547 36.8611C23.6345 36.6044 23.9796 35.931 23.9796 35.2591C23.9796 33.8731 23.273 33.2088 21.1368 33.2088H18.146V39.8505H19.9208V37.6673H20.7663C21.4639 37.6673 21.8419 37.7745 21.9898 38.4554L22.302 39.8505H24.2575L23.8063 38.1233C23.6091 37.3759 23.2969 37.0271 22.8532 36.8611H22.8547ZM21.1203 36.2375H19.9208V34.6688H21.1935C21.8673 34.6688 22.1705 34.9255 22.1705 35.4735C22.1705 35.9718 21.8508 36.2375 21.1188 36.2375H21.1203ZM10.6961 37.243H13.6868V35.7815H10.6961V34.6688H14.1544V33.2088H8.92139V39.8505H14.2441V38.389H10.6946V37.243H10.6961ZM0 21.0969C0 24.1256 2.41858 26.57 5.44068 26.57H26.2861V0H0V21.0969ZM45.5541 34.6612H47.6156V39.8505H49.3903V34.6612H51.4519V33.2088H45.5541V34.6612ZM72.6499 32.5928H74.0541L75.4673 31.2309H73.5701L72.6499 32.5928ZM79.7323 33.2088L77.2929 39.8505H79.1572L79.4918 38.8465H82.2062L82.5348 39.8505H84.4321L81.9926 33.2088H79.7323ZM79.94 37.4997L79.9878 37.3593C80.1685 36.7539 80.6361 35.2833 80.784 34.6356H80.9319C81.0798 35.2833 81.5474 36.7524 81.7207 37.3593L81.767 37.4997H79.94ZM0 39.8505H1.77472V37.6009H4.54286V36.156H1.77472V34.6703H4.97907V33.2103H0V39.852V39.8505ZM88.2459 34.9843C88.2459 34.628 88.5417 34.4695 89.084 34.4695C89.5023 34.4695 89.9459 34.619 90.0445 35.1414L91.761 34.9919C91.5235 33.855 90.7347 33.0578 89.1482 33.0578C87.5617 33.0578 86.5519 33.7221 86.5519 35.0508C86.5519 37.5918 90.306 36.7448 90.306 38.081C90.306 38.4298 90.0027 38.6125 89.4111 38.6125C88.8614 38.6125 88.3101 38.4056 88.1622 37.7987L86.4458 37.9557C86.6519 39.1847 87.7604 39.9985 89.3618 39.9985C90.9633 39.9985 91.9985 39.2768 91.9985 37.9814C91.9985 35.4826 88.2444 36.1711 88.2444 34.9843H88.2459ZM32.8577 26.567H40.8633V16.9751H51.3578V10.3469H40.8633V6.64326H52.3646V0H32.8562V26.567H32.8577ZM72.8546 39.8505H74.6293V33.2088H72.8546V39.8505ZM56.1157 37.243H59.1065V35.7815H56.1157V34.6688H59.5741V33.2088H54.341V39.8505H59.6637V38.389H56.1143V37.243H56.1157ZM68.1145 36.8611C68.8943 36.6044 69.2394 35.931 69.2394 35.2591C69.2394 33.8731 68.5328 33.2088 66.3966 33.2088H63.4058V39.8505H65.1805V37.6673H66.0261C66.7237 37.6673 67.1017 37.7745 67.2496 38.4554L67.5618 39.8505H69.5173L69.0661 38.1233C68.8689 37.3759 68.5567 37.0271 68.113 36.8611H68.1145ZM66.3816 36.2375H65.182V34.6688H66.4548C67.1286 34.6688 67.4318 34.9255 67.4318 35.4735C67.4318 35.9718 67.1121 36.2375 66.3801 36.2375H66.3816ZM55.2852 26.567H63.2908V0H55.2852V26.5655V26.567ZM92 0H83.0667L78.7688 7.21247L74.4709 0H65.5376L74.09 13.2292L65.5376 26.567H74.32L78.7688 19.1945L83.2175 26.567H92L83.4476 13.2292L92 0Z" fill="white"/>
<path d="M2.19043 2.21344H24.0248V24.3521H6.55851C7.21133 23.647 8.83068 22.0391 9.77929 21.1498C10.6726 20.2997 11.3568 20.034 12.5922 20.034C13.3541 20.034 13.9069 20.114 14.5896 20.114C16.0087 20.114 16.5077 20.0083 17.5594 19.4769C18.6111 18.9182 20.3977 16.8196 22.0275 13.9237C22.2382 13.5523 22.4742 13.0465 22.4742 12.5422C22.4742 12.1436 22.2382 11.9579 21.8961 11.9579C21.6063 11.9579 21.2911 12.0908 20.7652 12.4622L17.7685 14.4808C17.1904 14.8794 16.7437 14.9594 16.4016 14.9594C16.1387 14.9594 15.8758 14.9066 15.6397 14.7466C14.0891 13.7637 12.3278 11.0007 12.3278 9.22057C12.3278 8.42338 12.6176 8.02479 13.4841 7.54617L17.3487 5.42033C17.9269 5.10175 18.006 4.91604 18.006 4.70315C18.006 4.17169 17.7162 4.066 16.2448 4.066C12.1964 4.066 8.80529 5.71323 7.64903 7.97194C7.01862 9.24775 7.17548 11.3721 7.04401 12.6736C6.89313 14.1275 5.28722 16.3878 2.19043 19.27V2.21344Z" fill="#FF6720"/>
</g>
<defs>
<clipPath id="clip0_3076_7551">
<rect width="92" height="40" fill="white"/>
</clipPath>
</defs>
</svg>
